<svg width="62" height="41" viewBox="0 0 62 41" fill="none" xmlns="http://www.w3.org/2000/svg">
<path d="M51.7697 2.05005C51.7697 10.2055 49.2444 18.4501 45.4563 23.7936C40.4056 29.3834 40.4056 32.8 25.9129 32.8C11.4201 32.8 11.3641 30.224 5.82386 23.7936C0.283635 17.3631 0 10.8888 0 2.73338H5.0507C5.0507 14.35 9.39279 19.9307 9.39279 19.9307C9.39279 19.9307 13.2861 27.3371 25.9129 27.3371C38.5396 27.3371 41.6683 19.9307 41.6683 19.9307C41.6683 19.9307 46.0019 11.6167 46.0019 2.05005H51.7697Z" fill="#2F2105"/>
<path d="M46.0366 13.0206C46.5493 14.8376 47.5896 16.4273 49.0033 17.5536C50.4168 18.6798 52.1284 19.2828 53.8836 19.2727C55.6389 19.2626 57.3444 18.6401 58.747 17.4977C60.1494 16.3553 61.1742 14.7537 61.6691 12.9309C62.1639 11.1081 62.1024 9.1611 61.4938 7.37907C60.8852 5.59705 59.7619 4.07495 58.2905 3.03876C56.8192 2.00258 55.0785 1.50754 53.3267 1.62714C51.5748 1.74675 49.9053 2.47462 48.566 3.70271L51.283 7.17392C51.9324 6.57845 52.7419 6.22554 53.5913 6.16754C54.4407 6.10955 55.2847 6.34958 55.9981 6.85199C56.7115 7.3544 57.2563 8.09242 57.5513 8.95648C57.8464 9.82053 57.8762 10.7645 57.6363 11.6484C57.3963 12.5322 56.8994 13.3088 56.2195 13.8626C55.5394 14.4167 54.7125 14.7184 53.8614 14.7233C53.0103 14.7283 52.1804 14.4359 51.495 13.8898C50.8095 13.3437 50.3051 12.5729 50.0566 11.6919L46.0366 13.0206Z" fill="#2F2105"/>
<path d="M42.9311 2.17977C42.9311 8.12598 41.0686 13.8286 37.7535 18.0333C34.4383 22.2379 29.9419 24.6 25.2536 24.6C20.5653 24.6 16.0689 22.2379 12.7538 18.0333C9.43862 13.8286 7.57617 8.12598 7.57617 2.17977C7.57617 2.17977 17.6776 7.08423 25.2536 2.17977C32.8297 -2.72471 42.9311 2.17977 42.9311 2.17977Z" fill="#FF912B"/>
<path d="M48.9354 36.8999H2.83432C1.96634 36.8999 1.2627 37.8177 1.2627 38.9499C1.2627 40.0821 1.96634 40.9999 2.83432 40.9999H48.9354C49.8034 40.9999 50.507 40.0821 50.507 38.9499C50.507 37.8177 49.8034 36.8999 48.9354 36.8999Z" fill="#2F2105"/>
</svg>
